<?xml version="1.0" standalone="no"?>
<svg xmlns="http://www.w3.org/2000/svg" version="1.1" xmlns:xlink="http://www.w3.org/1999/xlink" width="512" height="512" x="0" y="0" viewBox="0 0 65 65" style="enable-background:new 0 0 512 512" xml:space="preserve"><g><path d="M35.4 40.9V38c-4.3 4.3-10.7 4.6-15.3 0v3.1l7.6 6.4zM19.1 50.1l6.5-1.7-6.9-5.8-2.4 1zM39 43.5l-2.3-.9-6.8 5.8 6.3 1.7zM31.6 51l-3.8-1-3.9 1 2.5 3.1c.2.3.3.7.2 1L23.5 64H32l-3-8.9c-.1-.3-.1-.7.2-1zM62.9 11.7H43.7c.1 2-.3 4.4-1.1 7.2 3 1.7 0 10.6-2.9 11.2-.3 1.1-1 3.2-2.3 5.3v5.3l13.2 5.1c3.6 1.4 6 4.9 6 8.7v2.3h6.3c.6 0 1.1-.5 1.1-1.1v-43c0-.5-.5-1-1.1-1zM50.4 35.5h-2.1c-.6 0-1.1-.5-1.1-1.1s.5-1.1 1.1-1.1h2.1c.6 0 1.1.5 1.1 1.1-.1.6-.6 1.1-1.1 1.1zm0-8.4h-2.1c-.6 0-1.1-.5-1.1-1.1s.5-1.1 1.1-1.1h2.1c.6 0 1.1.5 1.1 1.1-.1.6-.6 1.1-1.1 1.1zm0-8.4h-2.1c-.6 0-1.1-.5-1.1-1.1s.5-1.1 1.1-1.1h2.1c.6 0 1.1.5 1.1 1.1-.1.6-.6 1.1-1.1 1.1zm9.4 25h-4.2c-.6 0-1.1-.5-1.1-1.1s.5-1.1 1.1-1.1h4.2c.6 0 1.1.5 1.1 1.1s-.5 1.1-1.1 1.1zm0-8.2h-4.2c-.6 0-1.1-.5-1.1-1.1s.5-1.1 1.1-1.1h4.2c.6 0 1.1.5 1.1 1.1s-.5 1.1-1.1 1.1zm0-8.4h-4.2c-.6 0-1.1-.5-1.1-1.1s.5-1.1 1.1-1.1h4.2c.6 0 1.1.5 1.1 1.1s-.5 1.1-1.1 1.1zm0-8.4h-4.2c-.6 0-1.1-.5-1.1-1.1s.5-1.1 1.1-1.1h4.2c.6 0 1.1.5 1.1 1.1s-.5 1.1-1.1 1.1z" fill="#e53e3e" opacity="1" data-original="#000000"/><path d="m21.7 51.6-3 .8c-.5.1-1-.1-1.2-.6l-3.1-7.5-8.7 3.4c-2.8 1-4.7 3.7-4.7 6.7V64h20.3l3.1-9zM13.8 20.8c-.5.7 1.2 7.2 2.5 7.2.6-.2 1.3.3 1.4.8.1.4 2 10.2 10.1 10.5 8.2-.3 10.1-10 10.1-10.5.1-.6.7-1 1.3-.8 1.3 0 3.1-6.4 2.6-7.2-.1-.2-.4-.2-.4-.2-.7 0-1.2-.7-1-1.4 2.1-6.6 1.3-9.7.2-11.2-1.2-1.6-3-1.7-3.1-1.7-.4 0-.8-.3-1-.7C35.1 2 31.1 1 27.1 1c-9.3 0-14.8 5.9-11.9 18.3.1.3 0 .6-.2.9-.4.5-.9.2-1.2.6zM54.5 64v-9.6c0-3-1.9-5.7-4.6-6.7l-9-3.5-3.2 7.6c-.2.5-.7.8-1.2.6l-2.7-.8-2.6 3.4 3.1 9z" fill="#e53e3e" opacity="1" data-original="#000000"/></g></svg>