<svg width="60" height="60" viewBox="0 0 60 60" fill="none" xmlns="http://www.w3.org/2000/svg">
<path fill-rule="evenodd" clip-rule="evenodd" d="M22.8161 17.3182C21.6777 17.0645 20.5321 17.6977 20.5321 18.5805V43.3942H26.7417V38.7815C26.7417 38.0536 27.536 37.4636 28.5158 37.4636H32.0642C33.044 37.4636 33.8383 38.0536 33.8383 38.7815V43.3942H40.0479V22.1389C40.0479 21.5569 39.5339 21.0438 38.7835 20.8765L22.8161 17.3182ZM26.7417 24.9434C26.2518 24.9434 25.8546 25.2384 25.8546 25.6023V26.9203C25.8546 27.2842 26.2518 27.5792 26.7417 27.5792H28.5158C29.0057 27.5792 29.4029 27.2842 29.4029 26.9203V25.6023C29.4029 25.2384 29.0057 24.9434 28.5158 24.9434H26.7417ZM25.8546 29.5561C25.8546 29.1922 26.2518 28.8971 26.7417 28.8971H28.5158C29.0057 28.8971 29.4029 29.1922 29.4029 29.5561V30.874C29.4029 31.2379 29.0057 31.533 28.5158 31.533H26.7417C26.2518 31.533 25.8546 31.2379 25.8546 30.874V29.5561ZM26.7417 32.8509C26.2518 32.8509 25.8546 33.146 25.8546 33.5098V34.8278C25.8546 35.1916 26.2518 35.4867 26.7417 35.4867H28.5158C29.0057 35.4867 29.4029 35.1916 29.4029 34.8278V33.5098C29.4029 33.146 29.0057 32.8509 28.5158 32.8509H26.7417ZM31.1771 25.6023C31.1771 25.2384 31.5743 24.9434 32.0642 24.9434H33.8383C34.3282 24.9434 34.7254 25.2384 34.7254 25.6023V26.9203C34.7254 27.2842 34.3282 27.5792 33.8383 27.5792H32.0642C31.5743 27.5792 31.1771 27.2842 31.1771 26.9203V25.6023ZM32.0642 28.8971C31.5743 28.8971 31.1771 29.1922 31.1771 29.5561V30.874C31.1771 31.2379 31.5743 31.533 32.0642 31.533H33.8383C34.3282 31.533 34.7254 31.2379 34.7254 30.874V29.5561C34.7254 29.1922 34.3282 28.8971 33.8383 28.8971H32.0642ZM31.1771 33.5098C31.1771 33.146 31.5743 32.8509 32.0642 32.8509H33.8383C34.3282 32.8509 34.7254 33.146 34.7254 33.5098V34.8278C34.7254 35.1916 34.3282 35.4867 33.8383 35.4867H32.0642C31.5743 35.4867 31.1771 35.1916 31.1771 34.8278V33.5098Z" fill="#FE404F"/>
<path d="M18.7579 43.3942V20.9896H16.0967C15.1168 20.9896 14.3225 21.5797 14.3225 22.3075V42.0763H13.4354C12.9455 42.0763 12.5483 42.3714 12.5483 42.7353C12.5483 43.0991 12.9455 43.3942 13.4354 43.3942H18.7579Z" fill="#FE404F"/>
<path d="M47.1446 43.3942H41.8221V25.973L45.3635 27.4763C45.9163 27.711 46.2575 28.1476 46.2575 28.6206V42.0763H47.1446C47.6344 42.0763 48.0317 42.3714 48.0317 42.7353C48.0317 43.0991 47.6344 43.3942 47.1446 43.3942Z" fill="#FE404F"/>
<path d="M32.0642 43.3942V38.7815H28.5158V43.3942H32.0642Z" fill="#FE404F"/>
</svg>
