<svg width="60" height="60" viewBox="0 0 60 60" fill="none" xmlns="http://www.w3.org/2000/svg">
<path fill-rule="evenodd" clip-rule="evenodd" d="M46.7494 46.0344H42.2151C40.7037 46.0344 39.5086 44.8042 39.5086 43.3279V39.9184C39.5086 39.5318 39.825 39.2155 40.2116 39.2155H48.7529C49.1395 39.2155 49.4559 39.5318 49.4559 39.9184V43.3279C49.4559 44.8042 48.2257 46.0344 46.7494 46.0344Z" fill="#544E55"/>
<path fill-rule="evenodd" clip-rule="evenodd" d="M19.1571 46.0344H14.6228C13.1114 46.0344 11.9163 44.8042 11.9163 43.3279V39.9184C11.9163 39.5318 12.2327 39.2155 12.6193 39.2155H21.1606C21.5473 39.2155 21.8636 39.5318 21.8636 39.9184V43.3279C21.8636 44.8042 20.6334 46.0344 19.1571 46.0344Z" fill="#544E55"/>
<path fill-rule="evenodd" clip-rule="evenodd" d="M46.8548 25.7884C46.6791 25.7884 46.5385 25.7533 46.3979 25.6478C46.2221 25.5072 46.1518 25.2963 46.1518 25.0503L46.2573 21.5354C46.2924 21.219 46.4682 20.973 46.7494 20.8675L48.9989 20.1645C49.1747 20.1294 49.3153 20.0942 49.491 20.0942C50.4401 20.0942 51.2485 20.8675 51.4946 21.9923C51.8109 23.2928 51.2134 24.6285 50.1589 24.9097L47.0306 25.7533C46.9603 25.7884 46.9251 25.7884 46.8548 25.7884Z" fill="#FC2D39"/>
<path fill-rule="evenodd" clip-rule="evenodd" d="M13.7442 26.5195C13.6739 26.5195 13.6036 26.4844 13.5684 26.4844L10.4401 25.6056C9.38567 25.3244 8.78813 24.0239 9.06932 22.6882C9.31537 21.5634 10.159 20.7902 11.0728 20.7902C11.2486 20.7902 11.4243 20.8253 11.6001 20.8956L13.8145 21.5986C14.0957 21.6689 14.3066 21.9501 14.3066 22.2313L14.4472 25.7814C14.4472 25.9923 14.3417 26.2032 14.166 26.3438C14.0605 26.4492 13.8848 26.5195 13.7442 26.5195Z" fill="#FC2D39"/>
<path fill-rule="evenodd" clip-rule="evenodd" d="M48.7529 40.6215H12.6193C12.1975 40.6215 11.9163 40.3051 11.9163 39.9185C11.9163 39.2155 11.8812 38.3719 11.846 37.4932C11.7054 33.3104 11.5297 27.581 13.7441 25.0503L17.3293 17.5283V17.4932C18.9462 14.6812 21.6879 14.4 22.8127 14.4C23.0938 14.4 23.3047 14.4 23.4102 14.4352H37.962C38.0675 14.4 38.2784 14.4 38.5596 14.4C39.6492 14.4 42.426 14.6812 44.0077 17.4932C44.0429 17.4932 44.0429 17.5283 44.0429 17.5283L47.593 25.0503C49.8425 27.581 49.6316 33.3104 49.5262 37.4932C49.491 38.3719 49.4559 39.2155 49.4559 39.9185C49.4559 40.3051 49.1395 40.6215 48.7529 40.6215Z" fill="#FF4756"/>
<path fill-rule="evenodd" clip-rule="evenodd" d="M13.3223 25.6127C13.4629 25.4018 13.6035 25.226 13.7441 25.0503L14.0956 24.3473C19.5438 25.7533 25.9761 26.5265 31.0376 26.5617C36.064 26.5265 42.0394 25.3315 47.1009 23.9958L47.593 25.0503C47.6633 25.1206 47.7336 25.1909 47.8039 25.2963C42.5315 26.6671 36.31 27.9325 31.0376 27.9677H31.0025C25.7652 27.9325 19.0165 27.0889 13.3223 25.6127Z" fill="#FC2D39"/>
<path fill-rule="evenodd" clip-rule="evenodd" d="M19.2977 37.3174C17.3293 37.3174 15.6773 35.7006 15.6773 33.697C15.6773 31.6935 17.3293 30.0767 19.2977 30.0767C21.3012 30.0767 22.9181 31.6935 22.9181 33.697C22.9181 35.7006 21.3012 37.3174 19.2977 37.3174Z" fill="#E6E6E6"/>
<path fill-rule="evenodd" clip-rule="evenodd" d="M42.0745 37.3174C40.1061 37.3174 38.4541 35.7006 38.4541 33.697C38.4541 31.6935 40.1061 30.0767 42.0745 30.0767C44.078 30.0767 45.6949 31.6935 45.6949 33.697C45.6949 35.7006 44.078 37.3174 42.0745 37.3174Z" fill="#E6E6E6"/>
<path fill-rule="evenodd" clip-rule="evenodd" d="M34.9743 37.704H26.433C25.5192 37.704 24.8162 36.9659 24.8162 36.0872V34.6109C24.8162 33.7322 25.5192 32.994 26.433 32.994H34.9743C35.8531 32.994 36.5912 33.7322 36.5912 34.6109V36.0872C36.5912 36.9659 35.8531 37.704 34.9743 37.704Z" fill="#544E55"/>
</svg>
