<svg width="60" height="60" viewBox="0 0 60 60" fill="none" xmlns="http://www.w3.org/2000/svg">
<path d="M30.29 12.0377C20.2257 12.0377 12.0377 20.2257 12.0377 30.29C12.0377 40.3543 20.2257 48.5423 30.29 48.5423C40.3543 48.5423 48.5423 40.3543 48.5423 30.29C48.5423 20.2257 40.3543 12.0377 30.29 12.0377ZM31.8107 43.5063V41.535C31.8107 40.6952 31.1298 40.0143 30.29 40.0143C29.4502 40.0143 28.7693 40.6952 28.7693 41.535V43.5063C22.6447 42.8055 17.7746 37.9353 17.0737 31.8107H19.045C19.8848 31.8107 20.5657 31.1298 20.5657 30.29C20.5657 29.4502 19.8848 28.7693 19.045 28.7693H17.0737C17.7746 22.6447 22.6447 17.7746 28.7693 17.0737V19.045C28.7693 19.8848 29.4502 20.5657 30.29 20.5657C31.1298 20.5657 31.8107 19.8848 31.8107 19.045V17.0737C37.9353 17.7746 42.8055 22.6447 43.5063 28.7693H41.535C40.6952 28.7693 40.0143 29.4502 40.0143 30.29C40.0143 31.1298 40.6952 31.8107 41.535 31.8107H43.5063C42.8055 37.9353 37.9353 42.8055 31.8107 43.5063Z" fill="#FE404F"/>
<path d="M34.717 23.7119L29.6603 28.7693H25.1212C24.2814 28.7693 23.6005 29.4502 23.6005 30.29C23.6005 31.1298 24.2814 31.8107 25.1212 31.8107H30.29C30.6932 31.8107 31.0801 31.6503 31.3652 31.3652L36.8674 25.8623C37.4614 25.2682 37.4614 24.3052 36.8674 23.7119C36.2734 23.1179 35.311 23.1179 34.717 23.7119Z" fill="#FE404F"/>
</svg>
