<?xml version="1.0" standalone="no"?>
<svg xmlns="http://www.w3.org/2000/svg" version="1.1" xmlns:xlink="http://www.w3.org/1999/xlink" width="512" height="512" x="0" y="0" viewBox="0 0 307.837 307.837" style="enable-background:new 0 0 512 512" xml:space="preserve" class=""><g><path d="M143.044 171.255c2.56 2.643 6.844 4.32 11.421 4.314 4.571.036 8.867-1.701 11.301-4.207L278.677 57.688c7.554-7.602 4.988-13.766-5.734-13.766H36.792c-10.716 0-13.3 6.182-5.776 13.807l112.028 113.526zM13.569 232.058l76.853-78.578-76.788-77.82C6.104 68.034 0 70.54 0 81.257v145.275c0 10.711 6.074 13.187 13.569 5.526z" style="" fill="#ffffff" data-original="#010002" class="" opacity="1"/><path d="M36.702 263.915h234.426c10.717 0 13.336-6.217 5.848-13.879l-76.459-78.291-17.053 17.197c-7.996 8.002-18.629 11.57-29.011 11.588-10.347-.012-21.057-3.598-29.154-11.713l-17.334-17.572-77.092 78.804c-7.495 7.654-4.887 13.866 5.829 13.866zM307.837 226.508V83.16c0-10.716-6.122-13.24-13.676-5.639l-76.018 76.519 76.143 77.987c7.482 7.668 13.551 5.198 13.551-5.519z" style="" fill="#ffffff" data-original="#010002" class="" opacity="1"/></g></svg>