<svg width="30" height="30" viewBox="0 0 30 30" fill="none" xmlns="http://www.w3.org/2000/svg">
<g clip-path="url(#clip0_8_7)">
<path d="M15 30C23.2843 30 30 23.2843 30 15C30 6.71573 23.2843 0 15 0C6.71573 0 0 6.71573 0 15C0 23.2843 6.71573 30 15 30Z" fill="#FFDA45"/>
<path d="M7.74927 15.4291L21.0492 28.7292C26.1691 26.4699 29.7865 21.4315 29.9899 15.5253L19.0041 4.51172L7.74927 15.4291Z" fill="#FFBC36"/>
<path d="M7.74927 14.4875C7.74927 13.4787 8.21802 13.4787 8.21802 12.4699C8.21802 11.4612 7.74927 11.4611 7.74927 10.4524C7.74927 9.82417 8.29261 9.27579 8.44747 8.69642C8.60772 8.09695 8.41606 7.35122 8.7197 6.82634C9.02772 6.29396 9.77233 6.08888 10.2044 5.65675C10.6365 5.22468 10.8416 4.48007 11.374 4.17204C11.8988 3.86835 12.6446 4.06007 13.244 3.89982C13.8234 3.74495 14.3718 3.20161 15 3.20161C15.6281 3.20161 16.1765 3.74495 16.7559 3.89982C17.3554 4.06007 18.1011 3.86841 18.626 4.17204C19.1583 4.48007 19.3634 5.22468 19.7956 5.65675C20.2276 6.08882 20.9722 6.2939 21.2803 6.82634C21.584 7.35117 21.3922 8.09695 21.5525 8.69636C21.7074 9.27574 22.2507 9.82411 22.2507 10.4523C22.2507 11.4609 21.7819 11.4609 21.7819 12.4696C21.7819 13.4782 22.2507 13.4782 22.2507 14.4868L7.74927 14.4875Z" fill="#AA6E4D"/>
<path d="M21.782 12.4696C21.782 11.4609 22.2507 11.4609 22.2507 10.4523C22.2507 9.82411 21.7074 9.27574 21.5525 8.69636C21.3924 8.09689 21.584 7.35117 21.2803 6.82628C20.9723 6.2939 20.2277 6.08882 19.7956 5.65675C19.3635 5.22462 19.1585 4.48007 18.626 4.17204C18.1011 3.86835 17.3554 4.06001 16.7559 3.89982C16.1766 3.74495 15.6282 3.20161 15 3.20161C14.9991 3.20161 14.9981 3.20173 14.9973 3.20173V14.4871L22.2507 14.4868C22.2507 13.4782 21.782 13.4782 21.782 12.4696Z" fill="#9B6043"/>
<path d="M9.19042 16.2269C10.1298 16.2269 10.8914 15.4654 10.8914 14.526C10.8914 13.5866 10.1298 12.825 9.19042 12.825C8.25099 12.825 7.48944 13.5866 7.48944 14.526C7.48944 15.4654 8.25099 16.2269 9.19042 16.2269Z" fill="#FFCDBE"/>
<path d="M20.8096 16.2269C21.749 16.2269 22.5105 15.4654 22.5105 14.526C22.5105 13.5866 21.749 12.825 20.8096 12.825C19.8701 12.825 19.1086 13.5866 19.1086 14.526C19.1086 15.4654 19.8701 16.2269 20.8096 16.2269Z" fill="#FAA68E"/>
<path d="M15 30C18.5271 30 21.7693 28.7821 24.3305 26.7446L23.9596 23.3352C23.8636 22.4531 23.1745 21.7523 22.2942 21.6416L17.1773 21.0499V17.9864H12.8228V21.0499L7.70593 21.6416C6.82555 21.7523 6.13643 22.4531 6.04052 23.3352L5.66962 26.7445C8.23075 28.782 11.473 30 15 30Z" fill="#FFCDBE"/>
<path d="M24.3305 26.7446L23.9596 23.3352C23.8636 22.4531 23.1745 21.7523 22.2942 21.6416L17.1773 21.0498V17.9863H14.9973V30C14.9982 30 14.9991 30 15.0001 30C18.5271 30 21.7693 28.782 24.3305 26.7446Z" fill="#FAA68E"/>
<path d="M15 20.0816C11.6864 20.0816 9.00012 17.3954 9.00012 14.0817V10.6532C9.00012 7.33957 11.6864 4.65334 15 4.65334C18.3137 4.65334 20.9999 7.33957 20.9999 10.6532V14.0817C20.9999 17.3954 18.3137 20.0816 15 20.0816Z" fill="#FFDECF"/>
<path d="M15 4.65334C14.9991 4.65334 14.9981 4.65339 14.9972 4.65339V20.0815C14.9981 20.0815 14.9991 20.0816 14.9999 20.0816C18.3136 20.0816 20.9998 17.3954 20.9998 14.0817V10.6532C20.9999 7.33962 18.3137 4.65334 15 4.65334Z" fill="#FFBEAA"/>
<path d="M15 18.4174C14.0184 18.4174 13.2199 17.6188 13.2199 16.6373H13.923C13.923 17.2311 14.4062 17.7142 15 17.7142C15.5938 17.7142 16.0769 17.2311 16.0769 16.6373H16.7801C16.7801 17.6188 15.9816 18.4174 15 18.4174Z" fill="#FF9451"/>
<path d="M16.077 16.6372C16.077 17.2311 15.5938 17.7142 15 17.7142C14.9991 17.7142 14.9981 17.7141 14.9972 17.7141V18.4172C14.9981 18.4172 14.9991 18.4173 15 18.4173C15.9816 18.4173 16.7801 17.6188 16.7801 16.6372H16.077Z" fill="#F7674F"/>
<path d="M23.9596 23.3352C23.8636 22.4532 23.1745 21.7524 22.2942 21.6417L17.4414 21.0804C16.9771 21.9539 16.0582 22.5489 15 22.5489C13.9418 22.5489 13.023 21.9539 12.5586 21.0804L7.70586 21.6417C6.82549 21.7524 6.13637 22.4532 6.04045 23.3352L5.66956 26.7446C8.23075 28.782 11.473 30 15 30C18.5271 30 21.7693 28.7821 24.3305 26.7446L23.9596 23.3352Z" fill="#91CDFF"/>
<path d="M24.3305 26.7446L23.9596 23.3352C23.8636 22.4531 23.1745 21.7523 22.2942 21.6416L17.4414 21.0804C16.9771 21.9538 16.0582 22.5488 15 22.5488C14.9991 22.5488 14.9981 22.5487 14.9972 22.5487V30C14.9981 30 14.9991 30 15 30C18.5271 30 21.7693 28.782 24.3305 26.7446Z" fill="#1E8CE6"/>
<path d="M23.6201 23.922L23.6194 23.9155C23.5144 22.9239 22.7652 22.144 21.7943 22.0187L17.2994 21.4849L17.2234 22.1249L21.7151 22.6583C22.3845 22.7447 22.9035 23.2881 22.9782 23.9802L23.2793 27.5085C23.4864 27.3711 23.69 27.2288 23.8897 27.0815L23.6201 23.922Z" fill="#91CDFF"/>
<path d="M6.38052 23.9155L6.11029 27.0816C6.31004 27.2288 6.51359 27.3711 6.72072 27.5085L7.02183 23.9803C7.09654 23.2881 7.61556 22.7447 8.28166 22.6587L12.7766 22.1249L12.7006 21.4849L8.20238 22.0191C7.23476 22.144 6.48558 22.9238 6.38052 23.9155Z" fill="#B9EAFF"/>
<path d="M12.453 15.0829C12.1898 15.0829 11.9766 14.8695 11.9766 14.6064V13.9092C11.9766 13.6461 12.1899 13.4328 12.453 13.4328C12.7161 13.4328 12.9294 13.6461 12.9294 13.9092V14.6064C12.9294 14.8696 12.7161 15.0829 12.453 15.0829Z" fill="#4D4D4D"/>
<path d="M17.547 15.0829C17.2838 15.0829 17.0706 14.8695 17.0706 14.6064V13.9092C17.0706 13.6461 17.2839 13.4328 17.547 13.4328C17.8101 13.4328 18.0234 13.6461 18.0234 13.9092V14.6064C18.0235 14.8696 17.8101 15.0829 17.547 15.0829Z" fill="#333333"/>
<path d="M19.2072 5.81754L18.4648 5.39432C18.2629 4.54026 17.4521 3.88975 16.4877 3.99258L14.0523 4.25227C10.7281 4.6067 8.20654 7.41141 8.20654 10.7545V12.3675L8.74859 12.2006V15.2627C8.74859 15.7546 9.14732 16.1534 9.63922 16.1534V14.602C9.63922 13.6202 10.156 12.7597 10.9321 12.2761C11.2193 12.5135 11.5876 12.6562 11.9893 12.6562H13.5938C14.1929 12.6562 14.7178 12.3387 15.0097 11.863H15.791C17.0046 11.863 17.9883 10.8792 17.9883 9.66569C19.2986 9.66569 20.3608 10.7279 20.3608 12.0382V16.1533C20.8527 16.1533 21.2514 15.7546 21.2514 15.2627V9.33627C21.2515 7.88133 20.4712 6.53813 19.2072 5.81754Z" fill="#AA6E4D"/>
<path d="M19.2072 5.81754L18.4648 5.39432C18.2629 4.54026 17.4521 3.88975 16.4876 3.99258L14.9973 4.15149V11.8819C15.0013 11.8756 15.0057 11.8695 15.0097 11.863H15.791C17.0046 11.863 17.9883 10.8793 17.9883 9.66575C19.2986 9.66575 20.3608 10.728 20.3608 12.0383V16.1534C20.8527 16.1534 21.2514 15.7546 21.2514 15.2627V9.33627C21.2515 7.88133 20.4711 6.53813 19.2072 5.81754Z" fill="#9B6043"/>
<path d="M15 23.125C16.381 23.125 17.5746 22.3241 18.1427 21.1615L17.4414 21.0804C16.977 21.9539 16.0582 22.5489 15 22.5489C13.9418 22.5489 13.0229 21.9539 12.5585 21.0804L11.8573 21.1615C12.4253 22.324 13.619 23.125 15 23.125Z" fill="#008CC3"/>
<path d="M17.4414 21.0804C16.9771 21.9538 16.0582 22.5488 15 22.5488C14.9991 22.5488 14.9981 22.5487 14.9972 22.5487V23.1249C14.9981 23.1249 14.9991 23.125 15 23.125C16.381 23.125 17.5747 22.324 18.1427 21.1615L17.4414 21.0804Z" fill="#0074A3"/>
</g>
<defs>
<clipPath id="clip0_8_7">
<rect width="30" height="30" fill="white"/>
</clipPath>
</defs>
</svg>
