<svg width="22" height="27" viewBox="0 0 22 27" fill="none" xmlns="http://www.w3.org/2000/svg">
<path d="M0 11.3906C0 7.89434 2.63705 5.0625 5.89286 5.0625H6.28571C7.15491 5.0625 7.85714 5.8166 7.85714 6.75C7.85714 7.6834 7.15491 8.4375 6.28571 8.4375H5.89286C4.37545 8.4375 3.14286 9.76113 3.14286 11.3906V11.8125H6.28571C8.0192 11.8125 9.42857 13.326 9.42857 15.1875V18.5625C9.42857 20.424 8.0192 21.9375 6.28571 21.9375H3.14286C1.40937 21.9375 0 20.424 0 18.5625V16.875V15.1875V11.3906ZM12.5714 11.3906C12.5714 7.89434 15.2085 5.0625 18.4643 5.0625H18.8571C19.7263 5.0625 20.4286 5.8166 20.4286 6.75C20.4286 7.6834 19.7263 8.4375 18.8571 8.4375H18.4643C16.9469 8.4375 15.7143 9.76113 15.7143 11.3906V11.8125H18.8571C20.5906 11.8125 22 13.326 22 15.1875V18.5625C22 20.424 20.5906 21.9375 18.8571 21.9375H15.7143C13.9808 21.9375 12.5714 20.424 12.5714 18.5625V16.875V15.1875V11.3906Z" fill="#5C5C5C"/>
</svg>
