<svg width="24" height="24" viewBox="0 0 24 24" fill="none" xmlns="http://www.w3.org/2000/svg">
<g clip-path="url(#clip0_25_122)">
<path d="M11.0949 1.10051C11.2649 0.756048 11.6157 0.537903 11.9999 0.537903C12.3841 0.537903 12.7349 0.75599 12.9049 1.10051L16.0664 7.50637L23.1357 8.53359C23.5159 8.58883 23.8317 8.8551 23.9505 9.22048C24.0692 9.58586 23.9702 9.9869 23.6951 10.255L18.5797 15.2413L19.7873 22.282C19.8523 22.6607 19.6966 23.0433 19.3858 23.2691C19.075 23.4949 18.663 23.5247 18.3229 23.3459L12 20.0217L5.6769 23.346C5.33686 23.5248 4.92481 23.495 4.61402 23.2692C4.30324 23.0435 4.14761 22.6608 4.21252 22.2822L5.42012 15.2414L0.304722 10.2551C0.0296518 9.98696 -0.0693992 9.58586 0.0493455 9.22054C0.168032 8.85516 0.483888 8.58889 0.864069 8.53365L7.9334 7.50643L11.0949 1.10051Z" fill="#FFD422"/>
<path d="M23.9505 9.22066C23.8318 8.85528 23.5159 8.58901 23.1357 8.53377L16.0664 7.50656L12.9049 1.1007C12.7349 0.756231 12.3841 0.538086 11.9999 0.538086C11.9326 0.538086 11.9999 20.022 11.9999 20.022L18.3229 23.3462C18.663 23.525 19.075 23.4952 19.3858 23.2694C19.6966 23.0436 19.8522 22.661 19.7873 22.2823L18.5797 15.2416L23.6951 10.2553C23.9702 9.98708 24.0692 9.58599 23.9505 9.22066Z" fill="#EEBF00"/>
</g>
<defs>
<clipPath id="clip0_25_122">
<rect width="24" height="24" fill="white"/>
</clipPath>
</defs>
</svg>
