<svg width="60" height="60" viewBox="0 0 60 60" fill="none" xmlns="http://www.w3.org/2000/svg">
<g clip-path="url(#clip0_26_242)">
<path d="M28.416 10.9259C28.7135 10.3231 29.3275 9.94135 29.9998 9.94135C30.6722 9.94135 31.2861 10.323 31.5836 10.9259L37.1162 22.1362L49.4875 23.9338C50.1529 24.0305 50.7055 24.4964 50.9133 25.1359C51.121 25.7753 50.9478 26.4771 50.4664 26.9463L41.5144 35.6723L43.6278 47.9936C43.7414 48.6562 43.469 49.3259 42.9251 49.721C42.3812 50.1161 41.6601 50.1683 41.0651 49.8554L29.9999 44.038L18.9346 49.8556C18.3395 50.1684 17.6184 50.1163 17.0745 49.7212C16.5306 49.3261 16.2583 48.6564 16.3719 47.9938L18.4852 35.6724L9.53324 26.9464C9.05187 26.4772 8.87853 25.7753 9.08633 25.136C9.29403 24.4965 9.84678 24.0306 10.5121 23.9339L22.8834 22.1363L28.416 10.9259Z" fill="#FE404F"/>
<path d="M50.9133 25.1361C50.7056 24.4967 50.1529 24.0307 49.4876 23.934L37.1162 22.1364L31.5837 10.9262C31.2861 10.3233 30.6722 9.94159 29.9999 9.94159C29.8821 9.94159 29.9999 44.0384 29.9999 44.0384L41.0651 49.8558C41.6602 50.1686 42.3813 50.1165 42.9251 49.7214C43.469 49.3262 43.7414 48.6566 43.6278 47.994L41.5145 35.6727L50.4664 26.9467C50.9479 26.4773 51.1211 25.7754 50.9133 25.1361Z" fill="#FD3A4A"/>
</g>
<defs>
<clipPath id="clip0_26_242">
<rect width="42" height="42" fill="white" transform="translate(9 9)"/>
</clipPath>
</defs>
</svg>
