<?xml version="1.0" standalone="no"?>
<svg xmlns="http://www.w3.org/2000/svg" version="1.1" xmlns:xlink="http://www.w3.org/1999/xlink" width="512" height="512" x="0" y="0" viewBox="0 0 21.825 21.825" style="enable-background:new 0 0 512 512" xml:space="preserve" class=""><g transform="matrix(-1.8369701987210297e-16,-1,1,-1.8369701987210297e-16,0.0002634992270031944,21.82522602179961)"><path d="M16.791 13.254a1.112 1.112 0 0 1 1.587 0 1.14 1.14 0 0 1 0 1.587l-6.65 6.651a1.14 1.14 0 0 1-.809.333c-.317 0-.603-.127-.81-.333l-6.65-6.651c-.444-.444-.444-1.143 0-1.587s1.143-.444 1.587 0l4.746 4.762V1.111A1.116 1.116 0 0 1 10.918 0c.619 0 1.111.492 1.111 1.111v16.904l4.762-4.761z" style="" fill="#1e201d" data-original="#1e201d" class=""/></g></svg>